<svg width="768" height="70" viewBox="0 0 768 70" fill="none" xmlns="http://www.w3.org/2000/svg">
<rect width="768" height="70" fill="#0C2F33"/>
<g clip-path="url(#clip0_170_1301)">
<path d="M476.002 26H475.998C471.035 26 467 30.2607 467 35.5C467 37.5781 467.635 39.5043 468.713 41.0682L467.592 44.5974L471.051 43.4301C472.474 44.4253 474.172 45 476.002 45C480.965 45 485 40.7381 485 35.5C485 30.2619 480.965 26 476.002 26ZM481.239 39.4152C481.022 40.0624 480.16 40.5991 479.473 40.7559C479.003 40.8616 478.388 40.9459 476.321 40.041C473.676 38.8844 471.972 36.0474 471.84 35.8634C471.713 35.6793 470.771 34.3612 470.771 32.9979C470.771 31.6347 471.427 30.9709 471.691 30.6859C471.908 30.4519 472.267 30.3451 472.611 30.3451C472.723 30.3451 472.823 30.351 472.913 30.3558C473.177 30.3676 473.31 30.3843 473.484 30.8248C473.702 31.377 474.23 32.7403 474.293 32.8804C474.357 33.0205 474.422 33.2105 474.332 33.3946C474.247 33.5846 474.173 33.6689 474.04 33.8304C473.907 33.9919 473.781 34.1154 473.649 34.2887C473.527 34.4396 473.39 34.6011 473.543 34.8801C473.696 35.1532 474.225 36.0641 475.003 36.7956C476.008 37.7396 476.822 38.0413 477.114 38.1695C477.331 38.2645 477.59 38.2419 477.748 38.0638C477.95 37.8346 478.198 37.4546 478.451 37.0806C478.631 36.8122 478.859 36.7789 479.097 36.8739C479.34 36.963 480.626 37.6339 480.89 37.7729C481.155 37.913 481.329 37.9795 481.393 38.0971C481.456 38.2146 481.456 38.7668 481.239 39.4152Z" fill="#4C858B"/>
</g>
<g clip-path="url(#clip1_170_1301)">
<path d="M418.128 26H409.872C407.186 26 405 28.3072 405 31.1431V39.857C405 42.6928 407.186 45 409.872 45H418.128C420.814 45 423 42.6928 423 39.857V31.1431C423 28.3072 420.814 26 418.128 26V26ZM414 40.6951C411.286 40.6951 409.078 38.3646 409.078 35.5C409.078 32.6353 411.286 30.3048 414 30.3048C416.714 30.3048 418.922 32.6353 418.922 35.5C418.922 38.3646 416.714 40.6951 414 40.6951ZM419.039 31.53C418.237 31.53 417.585 30.8415 417.585 29.9949C417.585 29.1483 418.237 28.4597 419.039 28.4597C419.841 28.4597 420.494 29.1483 420.494 29.9949C420.494 30.8415 419.841 31.53 419.039 31.53Z" fill="#4C858B"/>
<path d="M414 31.418C411.868 31.418 410.134 33.2488 410.134 35.4993C410.134 37.7496 411.868 39.5806 414 39.5806C416.132 39.5806 417.867 37.7496 417.867 35.4993C417.867 33.2488 416.132 31.418 414 31.418Z" fill="#4C858B"/>
<path d="M419.039 29.5742C418.819 29.5742 418.64 29.7632 418.64 29.9955C418.64 30.2277 418.819 30.4167 419.039 30.4167C419.26 30.4167 419.439 30.2278 419.439 29.9955C419.439 29.7631 419.26 29.5742 419.039 29.5742Z" fill="#4C858B"/>
</g>
<g clip-path="url(#clip2_170_1301)">
<path d="M349.632 38.5482L349.268 43.8995C349.789 43.8995 350.015 43.6657 350.285 43.3849L352.726 40.9459L357.784 44.8186C358.712 45.3591 359.365 45.0744 359.616 43.9264L362.936 27.6615L362.937 27.6606C363.231 26.2269 362.441 25.6663 361.537 26.018L342.021 33.8294C340.689 34.3699 340.709 35.1461 341.795 35.4978L346.784 37.1203L358.374 29.5389C358.919 29.1613 359.415 29.3702 359.007 29.7478L349.632 38.5482Z" fill="#4C858B"/>
</g>
<g clip-path="url(#clip3_170_1301)">
<path d="M301.085 36.4845C300.713 36.0149 300.82 35.806 301.085 35.3863C301.09 35.3815 304.16 31.1399 304.476 29.7014L304.478 29.7005C304.635 29.1763 304.478 28.791 303.718 28.791H301.203C300.563 28.791 300.268 29.1216 300.11 29.4916C300.11 29.4916 298.829 32.5563 297.018 34.5429C296.433 35.117 296.163 35.301 295.844 35.301C295.687 35.301 295.443 35.117 295.443 34.5928V29.7005C295.443 29.0718 295.263 28.791 294.733 28.791H290.779C290.378 28.791 290.139 29.0843 290.139 29.3574C290.139 29.9535 291.045 30.0905 291.139 31.7676V35.4064C291.139 36.2037 290.994 36.3503 290.673 36.3503C289.818 36.3503 287.743 33.2731 286.514 29.7513C286.266 29.068 286.023 28.792 285.378 28.792H282.863C282.145 28.792 282 29.1226 282 29.4925C282 30.1461 282.855 33.3958 285.975 37.6891C288.055 40.6197 290.983 42.2077 293.648 42.2077C295.249 42.2077 295.444 41.855 295.444 41.2484C295.444 38.4481 295.3 38.1836 296.102 38.1836C296.474 38.1836 297.114 38.3676 298.609 39.7812C300.318 41.4573 300.598 42.2077 301.555 42.2077H304.069C304.786 42.2077 305.149 41.855 304.941 41.1593C304.462 39.6959 301.231 36.6858 301.085 36.4845Z" fill="#4C858B"/>
</g>
<defs>
<clipPath id="clip0_170_1301">
<rect width="18" height="19" fill="white" transform="translate(467 26)"/>
</clipPath>
<clipPath id="clip1_170_1301">
<rect width="18" height="19" fill="white" transform="translate(405 26)"/>
</clipPath>
<clipPath id="clip2_170_1301">
<rect width="22" height="23" fill="white" transform="translate(341 24)"/>
</clipPath>
<clipPath id="clip3_170_1301">
<rect width="23" height="23" fill="white" transform="translate(282 24)"/>
</clipPath>
</defs>
</svg>
